PathFileType	4	(X/Y/Z)	S:\OneDrive - The University of Tokyo\ìåëÂéˆã∆\ÉoÉCÉÅÉJ\ë™íË\hirabayashi_2\Trimmed\Trimmed_BarL1Hirabayashi1.trc
DataRate	CameraRate	NumFrames	NumMarkers	Units	OrigDataRate	OrigDataStartFrame	OrigNumFrames
200.00	200.00	       9	12	mm	200.00	67	       265
Frame#	Time	BarR0			BarR50			BarR100			BarR130			BarR180			BarR230			BarL0			BarL50			BarL100			BarL130			BarL180			BarL230			
		X1	Y1	Z1	X2	Y2	Z2	X3	Y3	Z3	X4	Y4	Z4	X5	Y5	Z5	X6	Y6	Z6	X7	Y7	Z7	X8	Y8	Z8	X9	Y9	Z9	X10	Y10	Z10	X11	Y11	Z11	X12	Y12	Z12	

67	0.330	-576.83966	2755.33813	1663.87000	-604.30371	2305.96460	1662.52625	-637.70795	1851.69592	1661.82019	-661.26794	1349.21301	1661.62573	-690.42297	902.43408	1662.28992	-714.08411	454.44223	1663.80347	-1112.20813	2805.49219	1664.55029	-1138.84094	2354.22705	1648.76074	-1168.68530	1904.54114	1638.98254	-1196.37170	1404.14807	1637.82434	-1223.90967	953.31708	1649.05994	-1242.36462	507.37549	1667.08447	
68	0.335	-576.82800	2755.33789	1663.86316	-604.31415	2305.94824	1662.51038	-637.69391	1851.69568	1661.83093	-661.27307	1349.19153	1661.63318	-690.43878	902.42462	1662.30261	-714.08258	454.45407	1663.80969	-1112.23145	2805.45850	1664.52844	-1138.85767	2354.21387	1648.74597	-1168.68762	1904.50024	1638.96802	-1196.41052	1404.16785	1637.78064	-1223.92957	953.32922	1649.05676	-1242.38904	507.38303	1667.07947	
69	0.340	-576.86292	2755.32861	1663.84778	-604.32532	2305.96069	1662.52148	-637.73297	1851.70410	1661.84387	-661.30487	1349.22534	1661.63123	-690.44098	902.43286	1662.27454	-714.10272	454.45648	1663.78943	-1112.22205	2805.47778	1664.53833	-1138.85156	2354.25049	1648.71729	-1168.69397	1904.50891	1638.91028	-1196.39648	1404.18884	1637.73157	-1223.92358	953.30780	1649.01978	-1242.40918	507.37979	1667.06763	
70	0.345	-576.87463	2755.32886	1663.86951	-604.30890	2305.93677	1662.50452	-637.74908	1851.72742	1661.81787	-661.32373	1349.23047	1661.61609	-690.45972	902.40814	1662.28125	-714.11566	454.45502	1663.79590	-1112.21692	2805.45190	1664.54468	-1138.88757	2354.24316	1648.67188	-1168.70923	1904.45117	1638.85510	-1196.46326	1404.19226	1637.66943	-1223.96753	953.34821	1648.94421	-1242.40894	507.39526	1667.07556	
71	0.350	-576.85364	2755.35083	1663.88196	-604.35858	2305.93799	1662.51843	-637.74127	1851.68237	1661.83521	-661.36530	1349.22778	1661.63855	-690.46008	902.42609	1662.28784	-714.11658	454.45895	1663.80896	-1112.21106	2805.43774	1664.54761	-1138.91895	2354.24146	1648.64136	-1168.75879	1904.47021	1638.81506	-1196.49194	1404.21704	1637.61218	-1223.97900	953.34698	1648.89722	-1242.41895	507.42169	1667.06921	
72	0.355	-576.88977	2755.35010	1663.87622	-604.36481	2305.92847	1662.52869	-637.80731	1851.70520	1661.85217	-661.36615	1349.21594	1661.63013	-690.47571	902.43866	1662.28821	-714.10657	454.46420	1663.80542	-1112.23621	2805.47559	1664.55078	-1138.92334	2354.26196	1648.60901	-1168.77271	1904.50757	1638.38489	-1196.51758	1404.20569	1637.51526	-1223.98962	953.33704	1648.84814	-1242.40308	507.39294	1667.08423	
73	0.360	-576.87756	2755.33447	1663.86963	-604.38458	2305.92749	1662.51794	-637.78162	1851.72778	1661.81860	-661.37390	1349.22485	1661.59961	-690.48944	902.38947	1662.29749	-714.09277	454.44693	1663.80969	-1112.22583	2805.44678	1664.55688	-1138.97607	2354.24072	1648.58484	-1168.78467	1904.55859	1638.33618	-1196.53784	1404.16931	1637.42798	-1224.00964	953.33350	1648.79565	-1242.40259	507.41895	1667.09070	
74	0.365	-576.85559	2755.33887	1663.86108	-604.36420	2305.89209	1662.50403	-637.79535	1851.69580	1661.82898	-661.36304	1349.22461	1661.61877	-690.48468	902.41663	1662.29443	-714.08899	454.42938	1663.80627	-1112.21948	2805.40942	1664.54968	-1138.99048	2354.24390	1648.53320	-1168.81677	1904.47583	1638.27808	-1196.55615	1404.13306	1637.36438	-1224.02661	953.36365	1648.75488	-1242.40552	507.40955	1667.09167	
75	0.370	-576.87683	2755.31836	1663.86292	-604.34900	2305.92310	1662.51685	-637.76764	1851.70032	1661.82043	-661.36920	1349.21204	1661.61560	-690.47760	902.41730	1662.28186	-714.09851	454.43567	1663.80530	-1112.20410	2805.41675	1664.54236	-1138.98364	2354.24243	1648.51318	-1168.86328	1904.49719	1638.24475	-1196.58386	1404.13660	1637.28723	-1223.99207	953.36310	1648.71289	-1242.39551	507.39694	1667.05591	
